<?xml version="1.0" encoding="utf-8"?>
<!-- Generator: Adobe Illustrator 16.0.0, SVG Export Plug-In . SVG Version: 6.00 Build 0)  -->
<!DOCTYPE svg PUBLIC "-//W3C//DTD SVG 1.1//EN" "http://www.w3.org/Graphics/SVG/1.1/DTD/svg11.dtd">
<svg version="1.1" id="Layer_1" xmlns="http://www.w3.org/2000/svg" xmlns:xlink="http://www.w3.org/1999/xlink" x="0px" y="0px"
	 width="24px" height="24px" viewBox="0 0 24 24" enable-background="new 0 0 24 24" xml:space="preserve">
<polygon points="10.637,9.646 10.637,2.249 8.89,2.249 8.891,6.62 5.106,4.434 4.232,5.948 "/>
<polygon points="13.363,14.354 13.363,21.753 15.11,21.753 15.109,17.383 18.894,19.567 19.769,18.055 "/>
<polygon points="10.642,14.359 4.236,18.057 5.109,19.57 8.895,17.385 8.894,21.754 10.642,21.754 "/>
<polygon points="13.356,9.643 19.764,5.944 18.891,4.431 15.106,6.617 15.105,2.247 13.358,2.246 "/>
<polygon points="14.722,11.997 21.128,15.695 22.001,14.183 18.216,11.998 22.001,9.813 21.127,8.299 "/>
<polygon points="9.28,12.004 2.873,8.305 1.999,9.817 5.784,12.002 2.001,14.187 2.873,15.701 "/>
</svg>
