<?xml version="1.0" encoding="utf-8"?>
<!-- Generator: Adobe Illustrator 16.0.0, SVG Export Plug-In . SVG Version: 6.00 Build 0)  -->
<!DOCTYPE svg PUBLIC "-//W3C//DTD SVG 1.1//EN" "http://www.w3.org/Graphics/SVG/1.1/DTD/svg11.dtd">
<svg version="1.1" id="Layer_1" xmlns="http://www.w3.org/2000/svg" xmlns:xlink="http://www.w3.org/1999/xlink" x="0px" y="0px"
	 width="24px" height="24px" viewBox="0 0 24 24" enable-background="new 0 0 24 24" xml:space="preserve">
<path d="M19.001,15c0,0-2,2.17-2,3.5c0,1.104,0.896,2,2,2s2-0.896,2-2C21.001,17.17,19.001,15,19.001,15 M5.211,13.5l4.79-4.79
	l4.79,4.79 M16.562,12.44L7.621,3.5l-1.41,1.41l2.38,2.38l-5.15,5.15c-0.59,0.56-0.59,1.53,0,2.121l5.5,5.5
	c0.29,0.289,0.68,0.439,1.06,0.439s0.77-0.15,1.06-0.439l5.5-5.5C17.151,13.97,17.151,13,16.562,12.44z"/>
</svg>
