<?xml version="1.0" encoding="utf-8"?>
<!-- Generator: Adobe Illustrator 16.0.0, SVG Export Plug-In . SVG Version: 6.00 Build 0)  -->
<!DOCTYPE svg PUBLIC "-//W3C//DTD SVG 1.1//EN" "http://www.w3.org/Graphics/SVG/1.1/DTD/svg11.dtd">
<svg version="1.1" id="Layer_1" xmlns="http://www.w3.org/2000/svg" xmlns:xlink="http://www.w3.org/1999/xlink" x="0px" y="0px"
	 width="24px" height="24px" viewBox="0 0 24 24" enable-background="new 0 0 24 24" xml:space="preserve">
<path d="M12.216,13.958c-0.119,0.068-0.314,0.068-0.433,0l-1.371-0.791c-0.119-0.068-0.216-0.237-0.216-0.375v-1.583
	c0-0.138,0.098-0.306,0.216-0.375l1.372-0.792c0.119-0.069,0.314-0.069,0.433,0l1.371,0.792c0.119,0.069,0.217,0.237,0.217,0.375
	v1.583c0,0.138-0.098,0.307-0.217,0.375L12.216,13.958z"/>
<path d="M10.052,17.708c-0.119,0.068-0.314,0.068-0.434,0l-1.371-0.791c-0.119-0.068-0.216-0.237-0.216-0.375v-1.584
	c0-0.138,0.098-0.307,0.216-0.375l1.371-0.791c0.119-0.068,0.314-0.068,0.434,0l1.371,0.791c0.119,0.068,0.216,0.237,0.216,0.375
	v1.584c0,0.138-0.098,0.307-0.216,0.375L10.052,17.708z"/>
<path d="M14.382,17.708c-0.119,0.068-0.314,0.068-0.434,0l-1.371-0.791c-0.119-0.068-0.216-0.237-0.216-0.375v-1.584
	c0-0.138,0.098-0.307,0.216-0.375l1.371-0.791c0.119-0.068,0.314-0.068,0.434,0l1.37,0.791c0.119,0.068,0.217,0.237,0.217,0.375
	v1.584c0,0.138-0.098,0.307-0.217,0.375L14.382,17.708z"/>
<path d="M10.051,10.208c-0.119,0.069-0.314,0.069-0.433,0L8.247,9.417C8.128,9.348,8.031,9.179,8.031,9.042V7.458
	c0-0.138,0.098-0.306,0.216-0.375l1.372-0.792c0.119-0.069,0.314-0.069,0.433,0l1.372,0.792c0.119,0.069,0.216,0.237,0.216,0.375
	v1.583c0,0.138-0.098,0.306-0.216,0.375L10.051,10.208z"/>
<path d="M14.382,10.208c-0.119,0.069-0.314,0.069-0.434,0l-1.371-0.792c-0.119-0.069-0.216-0.237-0.216-0.375V7.458
	c0-0.138,0.098-0.306,0.216-0.375l1.371-0.792c0.119-0.069,0.314-0.069,0.434,0l1.37,0.792c0.119,0.069,0.217,0.237,0.217,0.375
	v1.583c0,0.138-0.098,0.306-0.217,0.375L14.382,10.208z"/>
<path d="M7.887,13.958c-0.119,0.068-0.314,0.068-0.434,0l-1.371-0.791c-0.119-0.068-0.216-0.237-0.216-0.375v-1.583
	c0-0.138,0.098-0.306,0.216-0.375l1.372-0.792c0.119-0.069,0.314-0.069,0.433,0l1.372,0.792c0.119,0.069,0.216,0.237,0.216,0.375
	v1.583c0,0.138-0.098,0.307-0.216,0.375L7.887,13.958z"/>
<path d="M16.547,13.958c-0.119,0.068-0.314,0.068-0.434,0l-1.37-0.791c-0.119-0.068-0.217-0.237-0.217-0.375v-1.583
	c0-0.138,0.098-0.306,0.217-0.375l1.37-0.792c0.119-0.069,0.314-0.069,0.434,0l1.37,0.792c0.119,0.069,0.217,0.237,0.217,0.375
	v1.583c0,0.138-0.098,0.307-0.217,0.375L16.547,13.958z"/>
</svg>
