<?xml version="1.0" encoding="utf-8"?>
<!-- Generator: Adobe Illustrator 16.0.0, SVG Export Plug-In . SVG Version: 6.00 Build 0)  -->
<!DOCTYPE svg PUBLIC "-//W3C//DTD SVG 1.1//EN" "http://www.w3.org/Graphics/SVG/1.1/DTD/svg11.dtd">
<svg version="1.1" id="Layer_1" xmlns="http://www.w3.org/2000/svg" xmlns:xlink="http://www.w3.org/1999/xlink" x="0px" y="0px"
	 width="24px" height="24px" viewBox="0 0 24 24" enable-background="new 0 0 24 24" xml:space="preserve">
<path d="M12.216,13.958c-0.119,0.068-0.314,0.068-0.433,0l-1.371-0.791c-0.119-0.068-0.216-0.237-0.216-0.375v-1.583
	c0-0.138,0.098-0.306,0.216-0.375l1.372-0.792c0.119-0.069,0.314-0.069,0.433,0l1.371,0.792c0.119,0.069,0.217,0.237,0.217,0.375
	v1.583c0,0.138-0.098,0.307-0.217,0.375L12.216,13.958z"/>
<path d="M10.052,17.708c-0.119,0.068-0.314,0.068-0.434,0l-1.371-0.791c-0.119-0.068-0.216-0.237-0.216-0.375v-1.584
	c0-0.138,0.098-0.307,0.216-0.375l1.371-0.791c0.119-0.068,0.314-0.068,0.434,0l1.371,0.791c0.119,0.068,0.216,0.237,0.216,0.375
	v1.584c0,0.138-0.098,0.307-0.216,0.375L10.052,17.708z"/>
<path d="M14.382,17.708c-0.119,0.068-0.314,0.068-0.434,0l-1.371-0.791c-0.119-0.068-0.216-0.237-0.216-0.375v-1.584
	c0-0.138,0.098-0.307,0.216-0.375l1.371-0.791c0.119-0.068,0.314-0.068,0.434,0l1.37,0.791c0.119,0.068,0.217,0.237,0.217,0.375
	v1.584c0,0.138-0.098,0.307-0.217,0.375L14.382,17.708z"/>
<path d="M10.051,10.208c-0.119,0.069-0.314,0.069-0.433,0L8.247,9.417C8.128,9.348,8.031,9.179,8.031,9.042V7.458
	c0-0.138,0.098-0.306,0.216-0.375l1.372-0.792c0.119-0.069,0.314-0.069,0.433,0l1.372,0.792c0.119,0.069,0.216,0.237,0.216,0.375
	v1.583c0,0.138-0.098,0.306-0.216,0.375L10.051,10.208z"/>
<path d="M14.382,10.208c-0.119,0.069-0.314,0.069-0.434,0l-1.371-0.792c-0.119-0.069-0.216-0.237-0.216-0.375V7.458
	c0-0.138,0.098-0.306,0.216-0.375l1.371-0.792c0.119-0.069,0.314-0.069,0.434,0l1.37,0.792c0.119,0.069,0.217,0.237,0.217,0.375
	v1.583c0,0.138-0.098,0.306-0.217,0.375L14.382,10.208z"/>
<path d="M7.887,13.958c-0.119,0.068-0.314,0.068-0.434,0l-1.371-0.791c-0.119-0.068-0.216-0.237-0.216-0.375v-1.583
	c0-0.138,0.098-0.306,0.216-0.375l1.372-0.792c0.119-0.069,0.314-0.069,0.433,0l1.372,0.792c0.119,0.069,0.216,0.237,0.216,0.375
	v1.583c0,0.138-0.098,0.307-0.216,0.375L7.887,13.958z"/>
<path d="M16.547,13.958c-0.119,0.068-0.314,0.068-0.434,0l-1.37-0.791c-0.119-0.068-0.217-0.237-0.217-0.375v-1.583
	c0-0.138,0.098-0.306,0.217-0.375l1.37-0.792c0.119-0.069,0.314-0.069,0.434,0l1.37,0.792c0.119,0.069,0.217,0.237,0.217,0.375
	v1.583c0,0.138-0.098,0.307-0.217,0.375L16.547,13.958z"/>
<path d="M12.216,21.458c-0.119,0.068-0.314,0.068-0.433,0l-1.371-0.791c-0.119-0.068-0.216-0.237-0.216-0.375v-1.584
	c0-0.138,0.098-0.307,0.216-0.375l1.371-0.791c0.119-0.068,0.314-0.068,0.433,0l1.371,0.791c0.119,0.068,0.217,0.237,0.217,0.375
	v1.584c0,0.138-0.098,0.307-0.217,0.375L12.216,21.458z"/>
<path d="M16.547,21.458c-0.119,0.068-0.314,0.068-0.434,0l-1.37-0.791c-0.119-0.068-0.217-0.237-0.217-0.375v-1.584
	c0-0.138,0.098-0.307,0.217-0.375l1.37-0.791c0.119-0.068,0.314-0.068,0.434,0l1.37,0.791c0.119,0.068,0.217,0.237,0.217,0.375
	v1.584c0,0.138-0.098,0.307-0.217,0.375L16.547,21.458z"/>
<path d="M7.886,6.458c-0.119,0.069-0.314,0.069-0.433,0L6.082,5.667C5.963,5.598,5.866,5.429,5.866,5.292V3.708
	c0-0.138,0.098-0.306,0.216-0.375l1.372-0.792c0.119-0.069,0.314-0.069,0.433,0l1.372,0.792c0.119,0.069,0.216,0.237,0.216,0.375
	v1.583c0,0.138-0.098,0.306-0.216,0.375L7.886,6.458z"/>
<path d="M12.216,6.458c-0.119,0.069-0.314,0.069-0.433,0l-1.372-0.792c-0.119-0.069-0.216-0.237-0.216-0.375V3.708
	c0-0.138,0.098-0.306,0.216-0.375l1.372-0.792c0.119-0.069,0.314-0.069,0.433,0l1.371,0.792c0.119,0.069,0.217,0.237,0.217,0.375
	v1.583c0,0.138-0.098,0.306-0.217,0.375L12.216,6.458z"/>
<path d="M20.299,16.542c0,0.138-0.098,0.307-0.217,0.375l-1.37,0.791c-0.119,0.068-0.314,0.068-0.434,0l-1.37-0.791
	c-0.119-0.068-0.217-0.237-0.217-0.375v-1.584c0-0.138,0.098-0.307,0.217-0.375l1.37-0.791c0.119-0.068,0.314-0.068,0.434,0
	l1.37,0.791c0.119,0.068,0.217,0.237,0.217,0.375V16.542z"/>
<path d="M22.464,12.792c0,0.138-0.098,0.307-0.217,0.375l-1.37,0.791c-0.119,0.068-0.314,0.068-0.434,0l-1.37-0.791
	c-0.119-0.068-0.217-0.237-0.217-0.375v-1.583c0-0.138,0.098-0.306,0.217-0.375l1.37-0.792c0.119-0.069,0.314-0.069,0.434,0
	l1.37,0.792c0.119,0.069,0.217,0.237,0.217,0.375V12.792z"/>
<path d="M5.144,12.792c0,0.138-0.098,0.307-0.216,0.375l-1.371,0.791c-0.119,0.068-0.314,0.068-0.434,0l-1.371-0.791
	c-0.119-0.068-0.216-0.237-0.216-0.375v-1.583c0-0.138,0.098-0.306,0.216-0.375l1.372-0.792c0.119-0.069,0.314-0.069,0.433,0
	l1.372,0.792c0.119,0.069,0.216,0.237,0.216,0.375V12.792z"/>
<path d="M7.309,9.042c0,0.138-0.098,0.306-0.216,0.375l-1.372,0.792c-0.119,0.069-0.314,0.069-0.433,0L3.917,9.417
	C3.798,9.348,3.701,9.179,3.701,9.042V7.458c0-0.138,0.098-0.306,0.216-0.375l1.372-0.792c0.119-0.069,0.314-0.069,0.433,0
	l1.372,0.792c0.119,0.069,0.216,0.237,0.216,0.375V9.042z"/>
<path d="M3.917,16.917c-0.119-0.068-0.216-0.237-0.216-0.375v-1.584c0-0.138,0.098-0.307,0.216-0.375l1.371-0.791
	c0.119-0.068,0.314-0.068,0.434,0l1.371,0.791c0.119,0.068,0.216,0.237,0.216,0.375v1.584c0,0.138-0.098,0.307-0.216,0.375
	l-1.371,0.791c-0.119,0.068-0.314,0.068-0.434,0L3.917,16.917z"/>
<path d="M6.082,20.667c-0.119-0.068-0.216-0.237-0.216-0.375v-1.584c0-0.138,0.098-0.307,0.216-0.375l1.371-0.791
	c0.119-0.068,0.314-0.068,0.434,0l1.371,0.791c0.119,0.068,0.216,0.237,0.216,0.375v1.584c0,0.138-0.098,0.307-0.216,0.375
	l-1.371,0.791c-0.119,0.068-0.314,0.068-0.434,0L6.082,20.667z"/>
<path d="M14.743,5.667c-0.119-0.069-0.217-0.237-0.217-0.375V3.708c0-0.138,0.098-0.306,0.217-0.375l1.37-0.792
	c0.119-0.069,0.314-0.069,0.434,0l1.37,0.792c0.119,0.069,0.217,0.237,0.217,0.375v1.583c0,0.138-0.098,0.306-0.217,0.375
	l-1.37,0.792c-0.119,0.069-0.314,0.069-0.434,0L14.743,5.667z"/>
<path d="M16.908,9.417c-0.119-0.069-0.217-0.237-0.217-0.375V7.458c0-0.138,0.098-0.306,0.217-0.375l1.37-0.792
	c0.119-0.069,0.314-0.069,0.434,0l1.37,0.792c0.119,0.069,0.217,0.237,0.217,0.375v1.583c0,0.138-0.098,0.306-0.217,0.375
	l-1.37,0.792c-0.119,0.069-0.314,0.069-0.434,0L16.908,9.417z"/>
</svg>
