<?xml version="1.0" encoding="utf-8"?>
<!-- Generator: Adobe Illustrator 16.0.0, SVG Export Plug-In . SVG Version: 6.00 Build 0)  -->
<!DOCTYPE svg PUBLIC "-//W3C//DTD SVG 1.1//EN" "http://www.w3.org/Graphics/SVG/1.1/DTD/svg11.dtd">
<svg version="1.1" id="Layer_1" xmlns="http://www.w3.org/2000/svg" xmlns:xlink="http://www.w3.org/1999/xlink" x="0px" y="0px"
	 width="24px" height="24px" viewBox="0 0 24 24" enable-background="new 0 0 24 24" xml:space="preserve">
<path d="M10.197,18.3h2.7V21h-2.7V18.3 M11.997,3c4.814,0.198,6.912,5.058,4.05,8.703c-0.747,0.899-1.953,1.494-2.547,2.25
	C12.897,14.7,12.897,15.6,12.897,16.5h-2.7c0-1.503,0-2.772,0.603-3.672c0.594-0.9,1.799-1.431,2.546-2.025
	c2.179-2.016,1.639-4.869-1.35-5.103c-1.491,0-2.7,1.209-2.7,2.7h-2.7C6.597,5.418,9.015,3,11.997,3z"/>
</svg>
