<?xml version="1.0" encoding="utf-8"?>
<!DOCTYPE svg PUBLIC"-//W3C//DTD SVG 1.1//EN""http://www.w3.org/Graphics/SVG/1.1/DTD/svg11.dtd">
<svg version="1.1" xmlns="http://www.w3.org/2000/svg" xmlns:xlink="http://www.w3.org/1999/xlink" x="0px" y="0px" width="300px" height="300px" viewBox="0 0 300 300" enable-background="new 0 0 300 300" xml:space="preserve">
  <g>
    <polygon fill="#333333" points="150,202.714 104.348,176.356 104.348,123.643 150,97.286 195.653,123.643 195.653,176.356"/>
    <polygon fill="#333333" points="45.652,202.714 0,176.356 0,123.643 45.652,97.286 91.305,123.643 91.305,176.356"/>
    <polygon fill="#333333" points="202.175,112.346 156.521,85.99 156.521,33.275 202.175,6.919 247.825,33.275 247.825,85.99"/>
    <polygon fill="#333333" points="97.827,112.346 52.173,85.99 52.173,33.275 97.827,6.919 143.478,33.275 143.478,85.99"/>
    <polygon fill="#333333" points="202.175,293.081 156.521,266.722 156.521,214.009 202.175,187.652 247.825,214.009 247.825,266.722"/>
    <polygon fill="#333333" points="97.827,293.081 52.173,266.722 52.173,214.009 97.827,187.652 143.478,214.009 143.478,266.722"/>
    <polygon fill="#333333" points="254.347,202.714 208.696,176.356 208.696,123.643 254.347,97.286 300,123.643 300,176.356"/>
  </g>
</svg>
